<?xml version="1.0" encoding="utf-8"?>
<!-- Generator: Adobe Illustrator 23.0.1, SVG Export Plug-In . SVG Version: 6.00 Build 0)  -->
<svg version="1.1" id="Layer_1" xmlns="http://www.w3.org/2000/svg" xmlns:xlink="http://www.w3.org/1999/xlink" x="0px" y="0px"
	 width="359.914px" height="435.395px" viewBox="0 0 359.914 435.395" enable-background="new 0 0 359.914 435.395"
	 xml:space="preserve">
<g>
	<path fill="#2A86D1" d="M230.805,140.799c-29.945-2.344-65.548-2.414-106.122-2.414L20.147,12.946
		c97.245,0.095,156.875,2.036,186.442,37.07l1.065,1.302l0.118,0.142c0.923,1.16,1.823,2.367,2.722,3.622
		c3.125,4.427,5.894,9.374,8.285,14.866c0.237,0.568,0.497,1.16,0.757,1.752c0.71,1.752,1.421,3.575,2.06,5.445
		c0.26,0.734,0.521,1.491,0.757,2.249c0.26,0.758,0.497,1.539,0.757,2.32c2.699,8.853,4.687,18.867,5.965,30.158
		c0.237,2.178,0.473,4.403,0.663,6.652C230.331,125.483,230.687,132.892,230.805,140.799z"/>
	<path fill="#2A86D1" d="M112.492,149.676v128.232c-5.208,0.45-10.629,0.781-16.239,1.089c-4.166,0.213-8.451,0.403-12.807,0.545
		c-2.178,0.071-4.403,0.142-6.628,0.213c-12.901,0.379-26.631,0.544-41.118,0.616c-8.096,0.024-16.428,0.047-24.998,0.047V27.528
		L112.492,149.676z"/>
	<path fill="#ED5065" d="M349.213,288.702c0,131.499-60.127,133.7-220.151,133.747V292.916c2.036-0.26,4.048-0.521,6.037-0.781
		c1.184-0.166,2.344-0.355,3.503-0.521c1.184-0.189,2.344-0.355,3.503-0.568c1.136-0.189,2.272-0.379,3.385-0.568
		c2.083-0.379,4.119-0.781,6.107-1.184c0.923-0.189,1.87-0.403,2.793-0.592c0.095-0.024,0.19-0.047,0.284-0.071
		c1.136-0.26,2.249-0.521,3.361-0.781c0.852-0.189,1.681-0.402,2.509-0.615c0.781-0.189,1.562-0.403,2.32-0.616
		c0.568-0.142,1.136-0.284,1.681-0.45c1.065-0.284,2.131-0.592,3.149-0.9c0.994-0.284,1.965-0.592,2.935-0.9
		c1.089-0.355,2.154-0.71,3.196-1.065c1.065-0.355,2.107-0.734,3.125-1.089c0.45-0.166,0.9-0.331,1.349-0.521
		c0.45-0.166,0.9-0.331,1.326-0.497c0.118-0.047,0.26-0.095,0.379-0.142c0.331-0.142,0.687-0.284,1.018-0.426
		c0.332-0.142,0.687-0.284,1.018-0.402c0.118-0.071,0.26-0.118,0.379-0.166c0.923-0.402,1.846-0.781,2.746-1.184
		c0.852-0.379,1.705-0.758,2.533-1.16c0.047-0.024,0.095-0.047,0.142-0.071c0.118-0.047,0.213-0.095,0.307-0.142
		c0.781-0.379,1.563-0.758,2.296-1.136c0.331-0.166,0.663-0.331,0.994-0.521c0.521-0.26,1.041-0.521,1.538-0.805
		c1.349-0.71,2.628-1.468,3.906-2.201c0.071-0.047,0.142-0.095,0.213-0.142h0.024c0.71-0.426,1.397-0.852,2.107-1.302
		c0.024-0.024,0.047-0.047,0.095-0.071c0.805-0.497,1.586-1.018,2.367-1.539c0.805-0.568,1.61-1.113,2.391-1.681
		c0.734-0.544,1.444-1.065,2.154-1.61c0.071-0.047,0.118-0.095,0.189-0.142c0.379-0.284,0.757-0.592,1.113-0.876
		c0.379-0.308,0.734-0.592,1.089-0.876c0.592-0.497,1.16-0.994,1.728-1.468c0.024-0.024,0.047-0.047,0.071-0.047
		c0.118-0.118,0.236-0.213,0.355-0.308c0,0,0.024-0.024,0.047-0.047c0.024-0.024,0.047-0.047,0.047-0.047
		c0.047-0.047,0.071-0.071,0.118-0.095c0.307-0.284,0.639-0.592,0.947-0.876c0.308-0.284,0.639-0.568,0.923-0.852
		c0.355-0.331,0.71-0.663,1.042-0.994c0.331-0.308,0.663-0.639,0.994-0.994c0.071-0.024,0.095-0.047,0.118-0.095
		c0.118-0.095,0.237-0.213,0.331-0.331c0.474-0.45,0.924-0.923,1.349-1.397c0.047-0.071,0.095-0.142,0.166-0.189
		c0.142-0.166,0.284-0.308,0.45-0.473c0.379-0.426,0.758-0.852,1.184-1.302c0.071-0.095,0.166-0.213,0.26-0.308
		c0.615-0.71,1.207-1.42,1.823-2.154v-0.024c0.474-0.545,0.876-1.065,1.325-1.61c0.071-0.118,0.166-0.237,0.261-0.355l0.189-0.237
		c0.024-0.024,0.047-0.071,0.071-0.118c0.544-0.71,1.065-1.444,1.61-2.178c0,0,0,0,0-0.024c0.355-0.473,0.686-0.923,1.018-1.42
		c0.19-0.284,0.379-0.544,0.544-0.829l0.024-0.024c0.024-0.024,0.024-0.024,0.047-0.047c0.189-0.284,0.355-0.568,0.544-0.852
		c0.237-0.355,0.473-0.734,0.71-1.113c0.237-0.355,0.473-0.758,0.71-1.136c0.189-0.308,0.403-0.639,0.568-0.947
		c0.189-0.284,0.355-0.592,0.544-0.9c0.118-0.213,0.26-0.426,0.379-0.663c0.284-0.521,0.592-1.042,0.876-1.562
		c0.047-0.095,0.118-0.213,0.189-0.331c0.047-0.118,0.118-0.213,0.166-0.331c0.118-0.213,0.237-0.426,0.355-0.639
		c0.284-0.544,0.568-1.089,0.852-1.657c0.379-0.757,0.758-1.515,1.113-2.296c0.095-0.189,0.19-0.379,0.284-0.592
		c0.213-0.45,0.403-0.9,0.616-1.349c0.26-0.568,0.521-1.16,0.781-1.775c0.45-1.018,0.876-2.083,1.302-3.148
		c0.095-0.213,0.166-0.45,0.26-0.663c0.071-0.189,0.142-0.402,0.213-0.592c0.118-0.237,0.213-0.497,0.308-0.758
		c0.047-0.095,0.071-0.189,0.094-0.26c0.118-0.379,0.26-0.734,0.403-1.113c0.024-0.095,0.071-0.189,0.095-0.284
		c0.166-0.45,0.331-0.923,0.497-1.373c0-0.024,0-0.047,0-0.047c0.355-0.971,0.687-1.989,0.994-2.959c0-0.024,0-0.047,0-0.047
		c0.355-1.018,0.663-2.059,0.971-3.101c0,0,0-0.024,0-0.047c0.308-1.042,0.615-2.083,0.9-3.148c-0.024,0-0.024-0.024-0.024-0.024
		c0-0.024,0-0.024,0.024-0.024c0.118-0.426,0.213-0.852,0.308-1.255c0.047-0.142,0.071-0.26,0.094-0.402
		c0.024-0.118,0.071-0.237,0.095-0.355c0.047-0.118,0.071-0.261,0.095-0.379c0.024-0.047,0.047-0.095,0.047-0.142
		c0.024-0.047,0.024-0.071,0.024-0.118c0-0.047,0.024-0.071,0.024-0.118c0.024-0.047,0.024-0.118,0.047-0.166
		c0.024-0.118,0.071-0.213,0.095-0.308c0-0.024,0-0.024,0-0.047c0.189-0.781,0.379-1.586,0.568-2.391
		c0.047-0.213,0.094-0.45,0.142-0.663c0.024-0.095,0.047-0.213,0.071-0.308c0.261-1.113,0.497-2.225,0.734-3.385
		c0.071-0.473,0.166-0.923,0.261-1.397c0.094-0.544,0.213-1.089,0.307-1.657c0.047-0.166,0.071-0.331,0.095-0.521
		c0.166-0.9,0.331-1.799,0.473-2.699c0.047-0.284,0.095-0.592,0.142-0.9c0.024-0.095,0.047-0.213,0.047-0.331
		c0.118-0.615,0.213-1.231,0.307-1.846c0.024-0.142,0.047-0.308,0.071-0.45c0.024-0.26,0.071-0.521,0.118-0.781
		c0-0.047,0-0.118,0.024-0.189v-0.071c0.071-0.497,0.142-1.018,0.213-1.539c0.118-0.734,0.213-1.468,0.308-2.201
		c0.024-0.26,0.071-0.497,0.095-0.758c0-0.095,0.024-0.213,0.024-0.308c0.024-0.095,0.024-0.213,0.047-0.308
		c0.024-0.26,0.071-0.497,0.095-0.758c0.071-0.568,0.118-1.136,0.189-1.704c0.142-1.302,0.284-2.604,0.403-3.93
		c0.047-0.308,0.071-0.615,0.094-0.923c0.047-0.497,0.094-0.994,0.118-1.515c0.071-0.521,0.095-1.018,0.142-1.539
		c0.118-1.302,0.213-2.651,0.308-4.001v-0.095c0.024-0.142,0.024-0.308,0.024-0.473c0.094-1.207,0.166-2.438,0.237-3.693v-0.237
		c0.071-1.278,0.142-2.58,0.19-3.906v-0.095c0.071-1.349,0.118-2.699,0.166-4.072c5.137,0.639,9.99,1.373,14.582,2.225
		c3.054,0.544,6.013,1.136,8.853,1.775c1.018,0.213,2.012,0.45,3.006,0.686c0.994,0.237,1.965,0.473,2.935,0.734
		c0.97,0.237,1.917,0.497,2.864,0.781c0.923,0.26,1.87,0.521,2.769,0.805c0.924,0.26,1.823,0.545,2.699,0.829
		c0.899,0.284,1.775,0.568,2.627,0.876c1.728,0.592,3.409,1.207,5.019,1.87c0.828,0.308,1.633,0.639,2.415,0.994
		c0.852,0.355,1.681,0.734,2.509,1.113c1.018,0.45,2.012,0.923,2.983,1.42c0.474,0.237,0.971,0.473,1.42,0.734
		c0.923,0.45,1.823,0.947,2.699,1.444c1.397,0.781,2.746,1.61,4.072,2.462c0.047,0.024,0.118,0.071,0.165,0.095
		c0.663,0.426,1.302,0.876,1.941,1.326c0.687,0.45,1.349,0.947,2.012,1.42c0.663,0.497,1.302,0.97,1.941,1.491
		c0.473,0.379,0.971,0.781,1.444,1.16c1.373,1.16,2.699,2.344,3.953,3.575c0.568,0.544,1.136,1.113,1.705,1.704
		c0.544,0.568,1.089,1.16,1.61,1.728c0.521,0.592,1.041,1.184,1.562,1.799c0.024,0.024,0.024,0.024,0.047,0.047l1.018,1.255
		C341.851,213.046,349.213,243.323,349.213,288.702z"/>
	<path fill="#2A86D1" d="M230.687,157.417c-0.071,2.746-0.189,5.445-0.331,8.049c-0.024,0.284-0.024,0.544-0.047,0.828
		c-0.047,1.042-0.118,2.059-0.189,3.077c-0.047,0.829-0.095,1.657-0.166,2.462c-0.095,1.255-0.19,2.486-0.308,3.693
		c-0.118,1.326-0.237,2.628-0.379,3.906c-0.261,2.58-0.568,5.09-0.923,7.528c-0.355,2.438-0.734,4.829-1.137,7.125
		c-0.426,2.32-0.876,4.569-1.349,6.747c-0.237,1.089-0.497,2.154-0.757,3.219c-0.261,1.065-0.521,2.107-0.805,3.125
		c-0.236,0.876-0.473,1.752-0.734,2.604c-0.213,0.734-0.426,1.468-0.663,2.178c-0.213,0.758-0.473,1.515-0.71,2.249
		c-0.284,0.852-0.568,1.681-0.876,2.509c-0.236,0.663-0.473,1.326-0.734,1.965c0,0.047-0.024,0.095-0.047,0.142
		c-0.379,0.994-0.757,1.941-1.16,2.888c-0.024,0.071-0.047,0.118-0.071,0.189c-0.308,0.758-0.639,1.515-0.971,2.225
		c-0.379,0.876-0.781,1.704-1.184,2.533c-0.402,0.828-0.804,1.657-1.231,2.462c-0.426,0.829-0.852,1.633-1.302,2.438
		c-0.781,1.349-1.562,2.651-2.391,3.93c-0.213,0.331-0.427,0.663-0.639,0.994c-0.355,0.544-0.71,1.065-1.089,1.586
		c-0.024,0.047-0.024,0.071-0.047,0.095c-0.497,0.687-0.995,1.349-1.492,2.012c-0.497,0.686-1.018,1.349-1.538,1.988
		c-0.497,0.615-0.994,1.231-1.515,1.823c-0.024,0.047-0.071,0.071-0.094,0.118c-0.71,0.829-1.42,1.61-2.178,2.391l-0.024,0.024
		c-0.166,0.189-0.331,0.379-0.521,0.544c-0.781,0.805-1.562,1.61-2.391,2.367c-0.592,0.568-1.207,1.113-1.823,1.657
		c-0.616,0.544-1.231,1.065-1.87,1.586c-0.473,0.402-0.947,0.781-1.42,1.136c-0.592,0.473-1.207,0.923-1.823,1.373
		c-0.876,0.663-1.775,1.278-2.675,1.894c-1.373,0.9-2.769,1.775-4.213,2.628c-1.231,0.71-2.485,1.42-3.787,2.083
		c-0.45,0.26-0.923,0.473-1.397,0.71c-0.024,0-0.024,0.024-0.047,0.024c-0.047,0.024-0.094,0.047-0.142,0.071
		c-4.237,2.107-8.759,3.93-13.564,5.539c-0.852,0.284-1.728,0.568-2.604,0.828c-0.876,0.284-1.752,0.544-2.652,0.805
		c-0.899,0.26-1.799,0.521-2.722,0.758c-1.089,0.284-2.178,0.568-3.29,0.852c-0.947,0.213-1.894,0.45-2.841,0.663
		c-0.757,0.189-1.515,0.355-2.296,0.521c-0.97,0.213-1.941,0.402-2.935,0.592c-0.97,0.213-1.965,0.402-2.959,0.568
		c-0.994,0.213-2.012,0.379-3.03,0.544c-1.018,0.189-2.035,0.355-3.077,0.521c-2.059,0.331-4.166,0.639-6.321,0.923
		c-1.065,0.166-2.154,0.284-3.243,0.426c-0.284,0.024-0.592,0.071-0.9,0.095V154.955
		C168.003,154.955,202.209,155.097,230.687,157.417z"/>
	<path fill="#ED5065" d="M112.492,294.549v113.295l-92.392-110.88c4.356,0,8.664,0,12.901-0.024c2.107,0,4.213-0.024,6.321-0.024
		c2.083,0,4.143-0.024,6.202-0.047c12.333-0.095,24.122-0.284,35.295-0.639c1.846-0.071,3.693-0.142,5.515-0.213
		c0.995-0.024,1.989-0.071,2.959-0.118c1.941-0.071,3.883-0.166,5.776-0.26c0.687-0.024,1.373-0.047,2.036-0.095
		c4.048-0.213,8.025-0.45,11.883-0.734C110.172,294.739,111.332,294.644,112.492,294.549z"/>
	<path fill="#ED5065" d="M291.169,151.522c-0.331-0.095-0.639-0.213-0.97-0.308c-0.852-0.284-1.728-0.544-2.604-0.805
		c-1.254-0.379-2.533-0.757-3.835-1.136c-2.367-0.663-4.829-1.278-7.339-1.87c-1.302-0.308-2.628-0.592-3.953-0.876
		c-1.018-0.213-2.036-0.426-3.077-0.639c-0.71-0.142-1.444-0.284-2.178-0.426c-1.113-0.213-2.249-0.426-3.385-0.615
		c-1.515-0.284-3.054-0.544-4.64-0.781c-1.823-0.284-3.669-0.568-5.563-0.828c-1.018-0.142-2.036-0.284-3.077-0.402
		c-1.041-0.142-2.083-0.284-3.149-0.403c0-0.9-0.024-1.823-0.047-2.699c0-0.9-0.024-1.799-0.047-2.675
		c-0.023-1.302-0.071-2.58-0.118-3.859c-0.284-8.309-0.852-16.121-1.681-23.459c-0.095-0.71-0.166-1.373-0.26-2.059
		c-0.118-0.97-0.237-1.917-0.355-2.864c-0.189-1.231-0.355-2.438-0.545-3.646c-0.189-1.231-0.379-2.438-0.592-3.622
		c-0.213-1.207-0.426-2.391-0.639-3.551c0-0.047-0.024-0.118-0.024-0.166L291.169,151.522z"/>
</g>
</svg>
