<?xml version="1.0" encoding="utf-8"?>
<!-- Generator: Adobe Illustrator 23.0.1, SVG Export Plug-In . SVG Version: 6.00 Build 0)  -->
<svg version="1.1" id="Layer_1" xmlns="http://www.w3.org/2000/svg" xmlns:xlink="http://www.w3.org/1999/xlink" x="0px" y="0px"
	 width="305.988px" height="145.049px" viewBox="0 0 305.988 145.049" enable-background="new 0 0 305.988 145.049"
	 xml:space="preserve">
<g>
	<g>
		<path fill="#2E2955" d="M179.982,55.732c-3.889,3.269-8.804,4.904-14.743,4.904h-10.833V16.407h10.128
			c6.41,0,11.559,1.549,15.448,4.647c3.888,3.098,5.833,8.836,5.833,17.211C185.814,46.641,183.87,52.463,179.982,55.732z
			 M174.694,25.445c-2.202-2.221-5.118-3.334-8.75-3.334h-4.102v32.884h4.167c7.99,0,11.987-5.577,11.987-16.73
			C177.995,31.941,176.894,27.667,174.694,25.445z"/>
		<path fill="#2E2955" d="M220.877,22.048h-9.615v32.883h9.615v5.705h-26.666v-5.705h9.615V22.048h-9.615v-5.641h26.666V22.048z"/>
		<path fill="#2E2955" d="M256.708,16.407h7.564l-14.038,44.229h-8.461l-14.038-44.229h7.948l10.448,37.178L256.708,16.407z"/>
		<path fill="#2E2955" d="M179.982,123.793c-3.889,3.269-8.804,4.904-14.743,4.904h-10.833V84.468h10.128
			c6.41,0,11.559,1.549,15.448,4.647c3.888,3.098,5.833,8.836,5.833,17.211C185.814,114.701,183.87,120.524,179.982,123.793z
			 M174.694,93.506c-2.202-2.221-5.118-3.334-8.75-3.334h-4.102v32.884h4.167c7.99,0,11.987-5.577,11.987-16.73
			C177.995,100.001,176.894,95.728,174.694,93.506z"/>
		<path fill="#2E2955" d="M202.993,103.441h16.025v5.576h-16.025v14.038h19.551v5.641h-26.987V84.468h26.602l-0.834,5.641h-18.332
			V103.441z"/>
		<path fill="#2E2955" d="M256.708,84.468h7.564l-14.038,44.229h-8.461l-14.038-44.229h7.948l10.448,37.178L256.708,84.468z"/>
		<path fill="#2E2955" d="M268.438,134.53h32.05v5.897h-32.05V134.53z"/>
	</g>
	<path fill="#2A86D1" d="M80.394,46.358c-10.189-0.797-22.304-0.822-36.11-0.822L8.714,2.855
		c33.089,0.032,53.379,0.693,63.439,12.614l0.362,0.443l0.04,0.048c0.314,0.395,0.62,0.805,0.926,1.232
		c1.063,1.506,2.006,3.19,2.819,5.058c0.081,0.193,0.169,0.395,0.258,0.596c0.242,0.596,0.483,1.216,0.701,1.853
		c0.088,0.25,0.177,0.507,0.258,0.765c0.089,0.258,0.169,0.524,0.258,0.789c0.918,3.012,1.595,6.42,2.03,10.262
		c0.081,0.741,0.161,1.498,0.226,2.263C80.233,41.147,80.353,43.668,80.394,46.358z"/>
	<path fill="#2A86D1" d="M40.136,49.379v43.633c-1.772,0.153-3.617,0.266-5.526,0.37c-1.418,0.073-2.876,0.137-4.358,0.185
		c-0.741,0.024-1.498,0.048-2.255,0.072c-4.39,0.129-9.062,0.185-13.991,0.209c-2.755,0.008-5.59,0.016-8.506,0.016V7.816
		L40.136,49.379z"/>
	<path fill="#ED5065" d="M120.684,96.685c0,44.744-20.459,45.493-74.909,45.509V98.118c0.693-0.089,1.377-0.177,2.054-0.266
		c0.403-0.056,0.797-0.121,1.192-0.177c0.403-0.064,0.797-0.121,1.192-0.193c0.387-0.064,0.773-0.129,1.152-0.193
		c0.709-0.129,1.402-0.266,2.078-0.403c0.314-0.064,0.636-0.137,0.95-0.201c0.032-0.008,0.065-0.016,0.097-0.024
		c0.387-0.089,0.765-0.177,1.144-0.266c0.29-0.064,0.572-0.137,0.854-0.209c0.266-0.064,0.532-0.137,0.789-0.209
		c0.193-0.048,0.387-0.097,0.572-0.153c0.363-0.097,0.725-0.201,1.071-0.306c0.338-0.097,0.669-0.201,0.999-0.306
		c0.37-0.121,0.733-0.242,1.087-0.362c0.363-0.121,0.717-0.25,1.063-0.37c0.153-0.056,0.306-0.113,0.459-0.177
		c0.153-0.056,0.306-0.113,0.451-0.169c0.04-0.016,0.088-0.032,0.129-0.048c0.113-0.048,0.234-0.097,0.346-0.145
		c0.113-0.048,0.234-0.097,0.346-0.137c0.04-0.024,0.088-0.04,0.129-0.056c0.314-0.137,0.628-0.266,0.934-0.403
		c0.29-0.129,0.58-0.258,0.862-0.395c0.016-0.008,0.032-0.016,0.048-0.024c0.04-0.016,0.072-0.032,0.105-0.048
		c0.266-0.129,0.532-0.258,0.781-0.387c0.113-0.056,0.225-0.113,0.338-0.177c0.177-0.089,0.354-0.177,0.523-0.274
		c0.459-0.242,0.894-0.499,1.329-0.749c0.024-0.016,0.048-0.032,0.072-0.048h0.008c0.242-0.145,0.475-0.29,0.717-0.443
		c0.008-0.008,0.016-0.016,0.032-0.024c0.274-0.169,0.54-0.346,0.805-0.524c0.274-0.193,0.548-0.379,0.814-0.572
		c0.25-0.185,0.491-0.362,0.733-0.548c0.024-0.016,0.04-0.032,0.064-0.048c0.129-0.097,0.258-0.201,0.379-0.298
		c0.129-0.105,0.25-0.201,0.371-0.298c0.201-0.169,0.395-0.338,0.588-0.499c0.008-0.008,0.016-0.016,0.024-0.016
		c0.04-0.04,0.08-0.073,0.121-0.105c0,0,0.008-0.008,0.016-0.016s0.016-0.016,0.016-0.016c0.016-0.016,0.024-0.024,0.04-0.032
		c0.105-0.097,0.217-0.201,0.322-0.298c0.105-0.097,0.217-0.193,0.314-0.29c0.121-0.113,0.242-0.226,0.354-0.338
		c0.113-0.105,0.226-0.217,0.338-0.338c0.024-0.008,0.032-0.016,0.04-0.032c0.04-0.032,0.081-0.073,0.113-0.113
		c0.161-0.153,0.314-0.314,0.459-0.475c0.016-0.024,0.032-0.048,0.056-0.064c0.048-0.056,0.097-0.105,0.153-0.161
		c0.129-0.145,0.258-0.29,0.403-0.443c0.024-0.032,0.056-0.073,0.089-0.105c0.209-0.242,0.411-0.483,0.62-0.733v-0.008
		c0.161-0.185,0.298-0.362,0.451-0.548c0.024-0.04,0.056-0.081,0.089-0.121l0.064-0.081c0.008-0.008,0.016-0.024,0.024-0.04
		c0.185-0.242,0.362-0.491,0.548-0.741c0,0,0,0,0-0.008c0.121-0.161,0.234-0.314,0.346-0.483c0.064-0.097,0.129-0.185,0.185-0.282
		l0.008-0.008c0.008-0.008,0.008-0.008,0.016-0.016c0.064-0.097,0.121-0.193,0.185-0.29c0.081-0.121,0.161-0.25,0.242-0.379
		c0.081-0.121,0.161-0.258,0.242-0.387c0.064-0.105,0.137-0.217,0.193-0.322c0.064-0.097,0.121-0.201,0.185-0.306
		c0.04-0.072,0.088-0.145,0.129-0.226c0.097-0.177,0.201-0.354,0.298-0.532c0.016-0.032,0.04-0.072,0.064-0.113
		c0.016-0.04,0.04-0.073,0.056-0.113c0.04-0.073,0.081-0.145,0.121-0.217c0.097-0.185,0.193-0.37,0.29-0.564
		c0.129-0.258,0.258-0.515,0.379-0.781c0.032-0.064,0.064-0.129,0.097-0.201c0.072-0.153,0.137-0.306,0.209-0.459
		c0.089-0.193,0.177-0.395,0.266-0.604c0.153-0.346,0.298-0.709,0.443-1.071c0.032-0.072,0.056-0.153,0.089-0.226
		c0.024-0.064,0.048-0.137,0.072-0.201c0.04-0.081,0.073-0.169,0.105-0.258c0.016-0.032,0.024-0.064,0.032-0.089
		c0.04-0.129,0.089-0.25,0.137-0.379c0.008-0.032,0.024-0.064,0.032-0.097c0.056-0.153,0.113-0.314,0.169-0.467
		c0-0.008,0-0.016,0-0.016c0.121-0.33,0.234-0.677,0.338-1.007c0-0.008,0-0.016,0-0.016c0.121-0.346,0.226-0.701,0.33-1.055
		c0,0,0-0.008,0-0.016c0.105-0.354,0.209-0.709,0.306-1.071c-0.008,0-0.008-0.008-0.008-0.008c0-0.008,0-0.008,0.008-0.008
		c0.04-0.145,0.073-0.29,0.105-0.427c0.016-0.048,0.024-0.089,0.032-0.137c0.008-0.04,0.024-0.081,0.032-0.121
		c0.016-0.04,0.024-0.089,0.032-0.129c0.008-0.016,0.016-0.032,0.016-0.048c0.008-0.016,0.008-0.024,0.008-0.04
		c0-0.016,0.008-0.024,0.008-0.04c0.008-0.016,0.008-0.04,0.016-0.056c0.008-0.04,0.024-0.073,0.032-0.105c0-0.008,0-0.008,0-0.016
		c0.064-0.266,0.129-0.54,0.193-0.814c0.016-0.072,0.032-0.153,0.048-0.226c0.008-0.032,0.016-0.073,0.024-0.105
		c0.089-0.379,0.169-0.757,0.25-1.152c0.024-0.161,0.056-0.314,0.089-0.475c0.032-0.185,0.072-0.37,0.105-0.564
		c0.016-0.056,0.024-0.113,0.032-0.177c0.056-0.306,0.113-0.612,0.161-0.918c0.016-0.097,0.032-0.201,0.048-0.306
		c0.008-0.032,0.016-0.072,0.016-0.113c0.04-0.209,0.072-0.419,0.105-0.628c0.008-0.048,0.016-0.105,0.024-0.153
		c0.008-0.089,0.024-0.177,0.04-0.266c0-0.016,0-0.04,0.008-0.064v-0.024c0.024-0.169,0.048-0.346,0.072-0.524
		c0.04-0.25,0.072-0.499,0.105-0.749c0.008-0.089,0.024-0.169,0.032-0.258c0-0.032,0.008-0.072,0.008-0.105
		c0.008-0.032,0.008-0.073,0.016-0.105c0.008-0.089,0.024-0.169,0.032-0.258c0.024-0.193,0.04-0.387,0.064-0.58
		c0.048-0.443,0.097-0.886,0.137-1.337c0.016-0.105,0.024-0.209,0.032-0.314c0.016-0.169,0.032-0.338,0.04-0.516
		c0.024-0.177,0.032-0.346,0.048-0.524c0.04-0.443,0.073-0.902,0.105-1.361V56.83c0.008-0.048,0.008-0.105,0.008-0.161
		c0.032-0.411,0.056-0.83,0.081-1.257v-0.081c0.024-0.435,0.048-0.878,0.064-1.329V53.97c0.024-0.459,0.04-0.918,0.056-1.385
		c1.748,0.217,3.399,0.467,4.962,0.757c1.039,0.185,2.046,0.387,3.012,0.604c0.346,0.072,0.685,0.153,1.023,0.234
		c0.338,0.081,0.669,0.161,0.999,0.25c0.33,0.081,0.652,0.169,0.975,0.266c0.314,0.089,0.636,0.177,0.942,0.274
		c0.314,0.089,0.62,0.185,0.918,0.282c0.306,0.097,0.604,0.193,0.894,0.298c0.588,0.201,1.16,0.411,1.708,0.636
		c0.282,0.105,0.556,0.217,0.822,0.338c0.29,0.121,0.572,0.25,0.854,0.379c0.346,0.153,0.685,0.314,1.015,0.483
		c0.161,0.081,0.33,0.161,0.483,0.25c0.314,0.153,0.62,0.322,0.918,0.491c0.475,0.266,0.934,0.548,1.385,0.838
		c0.016,0.008,0.04,0.024,0.056,0.032c0.226,0.145,0.443,0.298,0.661,0.451c0.234,0.153,0.459,0.322,0.685,0.483
		c0.225,0.169,0.443,0.33,0.66,0.507c0.161,0.129,0.33,0.266,0.491,0.395c0.467,0.395,0.918,0.797,1.345,1.216
		c0.193,0.185,0.387,0.379,0.58,0.58c0.185,0.193,0.37,0.395,0.548,0.588c0.177,0.201,0.354,0.403,0.532,0.612
		c0.008,0.008,0.008,0.008,0.016,0.016l0.346,0.427C118.179,70.942,120.684,81.244,120.684,96.685z"/>
	<path fill="#2A86D1" d="M80.353,52.013c-0.024,0.934-0.064,1.853-0.113,2.739c-0.008,0.097-0.008,0.185-0.016,0.282
		c-0.016,0.354-0.04,0.701-0.064,1.047c-0.016,0.282-0.032,0.564-0.056,0.838c-0.032,0.427-0.064,0.846-0.105,1.257
		c-0.04,0.451-0.081,0.894-0.129,1.329c-0.089,0.878-0.193,1.732-0.314,2.561c-0.121,0.83-0.25,1.643-0.387,2.424
		c-0.145,0.789-0.298,1.555-0.459,2.296c-0.081,0.37-0.169,0.733-0.258,1.095c-0.089,0.362-0.177,0.717-0.274,1.063
		c-0.08,0.298-0.161,0.596-0.25,0.886c-0.072,0.25-0.145,0.499-0.226,0.741c-0.072,0.258-0.161,0.516-0.242,0.765
		c-0.097,0.29-0.193,0.572-0.298,0.854c-0.08,0.226-0.161,0.451-0.25,0.669c0,0.016-0.008,0.032-0.016,0.048
		c-0.129,0.338-0.258,0.66-0.395,0.983c-0.008,0.024-0.016,0.04-0.024,0.064c-0.105,0.258-0.217,0.516-0.33,0.757
		c-0.129,0.298-0.266,0.58-0.403,0.862c-0.137,0.282-0.274,0.564-0.419,0.838c-0.145,0.282-0.29,0.556-0.443,0.83
		c-0.266,0.459-0.532,0.902-0.813,1.337c-0.073,0.113-0.145,0.226-0.217,0.338c-0.121,0.185-0.242,0.362-0.371,0.54
		c-0.008,0.016-0.008,0.024-0.016,0.032c-0.169,0.234-0.338,0.459-0.508,0.685c-0.169,0.234-0.346,0.459-0.523,0.677
		c-0.169,0.209-0.338,0.419-0.516,0.62c-0.008,0.016-0.024,0.024-0.032,0.04c-0.242,0.282-0.483,0.548-0.741,0.814l-0.008,0.008
		c-0.056,0.064-0.113,0.129-0.177,0.185c-0.266,0.274-0.532,0.548-0.814,0.805c-0.201,0.193-0.411,0.379-0.62,0.564
		c-0.209,0.185-0.419,0.362-0.636,0.54c-0.161,0.137-0.322,0.266-0.483,0.387c-0.201,0.161-0.411,0.314-0.62,0.467
		c-0.298,0.226-0.604,0.435-0.91,0.644c-0.467,0.306-0.942,0.604-1.434,0.894c-0.419,0.242-0.846,0.483-1.289,0.709
		c-0.153,0.089-0.314,0.161-0.475,0.242c-0.008,0-0.008,0.008-0.016,0.008c-0.016,0.008-0.032,0.016-0.048,0.024
		c-1.442,0.717-2.98,1.337-4.615,1.885c-0.29,0.097-0.588,0.193-0.886,0.282c-0.298,0.097-0.596,0.185-0.902,0.274
		c-0.306,0.089-0.612,0.177-0.926,0.258c-0.37,0.097-0.741,0.193-1.12,0.29c-0.322,0.072-0.644,0.153-0.967,0.226
		c-0.258,0.064-0.515,0.121-0.781,0.177c-0.33,0.072-0.66,0.137-0.999,0.201c-0.33,0.072-0.669,0.137-1.007,0.193
		c-0.338,0.073-0.685,0.129-1.031,0.185c-0.346,0.064-0.693,0.121-1.047,0.177c-0.701,0.113-1.418,0.217-2.151,0.314
		c-0.362,0.056-0.733,0.097-1.103,0.145c-0.097,0.008-0.201,0.024-0.306,0.032V51.175C59.024,51.175,70.664,51.224,80.353,52.013z"
		/>
	<path fill="#ED5065" d="M40.136,98.674v38.55L8.698,99.496c1.482,0,2.948,0,4.39-0.008c0.717,0,1.434-0.008,2.151-0.008
		c0.709,0,1.41-0.008,2.11-0.016c4.197-0.032,8.208-0.097,12.01-0.217c0.628-0.024,1.256-0.048,1.877-0.073
		c0.338-0.008,0.677-0.024,1.007-0.04c0.661-0.024,1.321-0.056,1.965-0.089c0.234-0.008,0.467-0.016,0.693-0.032
		c1.377-0.072,2.731-0.153,4.044-0.25C39.347,98.739,39.741,98.706,40.136,98.674z"/>
	<path fill="#ED5065" d="M100.933,50.007c-0.113-0.032-0.217-0.073-0.33-0.105c-0.29-0.097-0.588-0.185-0.886-0.274
		c-0.427-0.129-0.862-0.258-1.305-0.387c-0.805-0.226-1.643-0.435-2.497-0.636c-0.443-0.105-0.894-0.201-1.345-0.298
		c-0.346-0.073-0.693-0.145-1.047-0.217c-0.242-0.048-0.491-0.097-0.741-0.145c-0.379-0.073-0.765-0.145-1.152-0.209
		c-0.516-0.097-1.039-0.185-1.579-0.266c-0.62-0.097-1.248-0.193-1.893-0.282c-0.346-0.048-0.693-0.097-1.047-0.137
		c-0.354-0.048-0.709-0.097-1.071-0.137c0-0.306-0.008-0.62-0.016-0.918c0-0.306-0.008-0.612-0.016-0.91
		c-0.008-0.443-0.024-0.878-0.04-1.313c-0.097-2.827-0.29-5.485-0.572-7.982c-0.032-0.242-0.056-0.467-0.089-0.701
		c-0.04-0.33-0.081-0.652-0.121-0.975c-0.064-0.419-0.121-0.83-0.185-1.24c-0.064-0.419-0.129-0.83-0.201-1.232
		c-0.072-0.411-0.145-0.814-0.217-1.208c0-0.016-0.008-0.04-0.008-0.056L100.933,50.007z"/>
</g>
</svg>
